# xmcd
#
# Track frame offsets:
#	150
#	15115
#	26710
#	43055
#	60000
#	77580
#	96150
#	113495
#	128432
#	142710
#	153292
#	164910
#	180207
#	198550
#	213847
#	224947
#	240715
#	250910
#	266917
#	280495
#	294690
#
# Disc length: 4079 seconds
#
# Revision: 1
# Processed by: cddbd v1.5.2PL0 Copyright (c) Steve Scherf et al.
# Submitted via: EasyCDDAExtractor 10.2.0.1
#
DISCID=260fed15
DTITLE=Verskeidenheid - Klank Grens Vol 1
DYEAR=2007
DGENRE=Afrikaans
TTITLE0=Dozi - Tussen jou en my
TTITLE1=Karla du Plesis - Gebed
TTITLE2=Steve Hofmeyr - Kyk hoe lyk ons nou
TTITLE3=Anneli van Rooyen - Ek lewe
TTITLE4=Jurie Els - My deure staan oop
TTITLE5=Nadine - 'n Meisiekind wil ek graag bly
TTITLE6=Coenie de Villiers - Kring om die maan
TTITLE7=Andre Schwartz - Jy's die beste
TTITLE8=Patricia Lewis - Doodgewoon
TTITLE9=Louis van Rensburg - Voshaarnooi
TTITLE10=Deon Roberts - Mal verlief op
TTITLE11=Karin Hougaard - Gly op die reenboog
TTITLE12=Lieze Stassen - Bokkie
TTITLE13=Robbie Klay - Tokolosh
TTITLE14=Rina Hugo - Tiritomba
TTITLE15=Richard van der Westhuizen - Cowboy kitaar
TTITLE16=Randall Wicomb - Meisiesfontein
TTITLE17=Chris le Roux - Ek gaan huistoe
TTITLE18=Jannie du Toit - Volgende winter
TTITLE19=Nardus du Plooy - Om en om
TTITLE20=Cantero - In my liefdeslied
EXTD=
EXTT0=
EXTT1=
EXTT2=
EXTT3=
EXTT4=
EXTT5=
EXTT6=
EXTT7=
EXTT8=
EXTT9=
EXTT10=
EXTT11=
EXTT12=
EXTT13=
EXTT14=
EXTT15=
EXTT16=
EXTT17=
EXTT18=
EXTT19=
EXTT20=
PLAYORDER=
